<?xml version="1.0" encoding="UTF-8"?><svg version="1.1" width="256px" height="256px" viewBox="0 0 256.0 256.0" xmlns="http://www.w3.org/2000/svg" xmlns:xlink="http://www.w3.org/1999/xlink"><defs><clipPath id="i0"><path d="M76.5,0 C87.5783994,0 98.1067876,2.35487787 107.611907,6.59137594 C89.1336641,21.8584957 77.0134228,47.4745485 77.0134228,76.5 C77.0134228,105.525451 89.1336641,131.141504 107.611197,146.40738 C98.1067876,150.645122 87.5783994,153 76.5,153 C34.2502166,153 0,118.749783 0,76.5 C0,34.2502166 34.2502166,0 76.5,0 Z"></path></clipPath><clipPath id="i1"><path d="M76.5,0 C87.5783994,0 98.1067876,2.35487787 107.611907,6.59137594 C89.1336641,21.8584957 77.0134228,47.4745485 77.0134228,76.5 C77.0134228,105.525451 89.1336641,131.141504 107.611197,146.40738 C98.1067876,150.645122 87.5783994,153 76.5,153 C34.2502166,153 0,118.749783 0,76.5 C0,34.2502166 34.2502166,0 76.5,0 Z"></path></clipPath><clipPath id="i2"><path d="M76.5,0 C87.5783994,0 98.1067876,2.35487787 107.611907,6.59137594 C89.1336641,21.8584957 77.0134228,47.4745485 77.0134228,76.5 C77.0134228,105.525451 89.1336641,131.141504 107.611197,146.40738 C98.1067876,150.645122 87.5783994,153 76.5,153 C34.2502166,153 0,118.749783 0,76.5 C0,34.2502166 34.2502166,0 76.5,0 Z"></path></clipPath></defs><g transform="translate(0.0 103.0)"><g clip-path="url(#i0)"><polygon points="0,0 107.611907,0 107.611907,153 0,153 0,0" stroke="none" fill="#5B20B6"></polygon></g></g><g transform="translate(103.0 256.00190699230143) rotate(-90.0)"><g clip-path="url(#i1)"><polygon points="0,0 107.611907,0 107.611907,153 0,153 0,0" stroke="none" fill="#6D28D9"></polygon></g></g><g transform="translate(256.00130428374916 153.0) rotate(-180.0)"><g clip-path="url(#i0)"><polygon points="0,0 107.611907,0 107.611907,153 0,153 0,0" stroke="none" fill="#7C3AED"></polygon></g></g><g transform="translate(153.00000000000006 2.842170943040401e-14) rotate(90.00000000000001)"><g clip-path="url(#i0)"><polygon points="0,0 107.611907,0 107.611907,153 0,153 0,0" stroke="none" fill="#8B5CF6"></polygon></g></g><g transform="translate(-256.0 0.0)"><g transform="translate(256.00130428374916 153.0) rotate(-180.0)"><g clip-path="url(#i0)"><polygon points="-1.87371819e-14,0 107.611907,0 107.611907,153 -1.87371819e-14,153 -1.87371819e-14,0" stroke="none" fill="#C3B5FD"></polygon></g></g></g><g transform="translate(255.99999999999997 0.0)"><g transform="translate(0.0 103.0)"><g clip-path="url(#i2)"><polygon points="0,0 107.611907,0 107.611907,153 0,153 0,0" stroke="none" fill="#1F2936"></polygon></g></g></g></svg>